<svg width="182" height="62" viewBox="0 0 182 62" fill="none" xmlns="http://www.w3.org/2000/svg">
<path d="M28.4108 42.392L26.0222 38.5742H12.2237L9.79245 42.392H6.76331C7.71616 40.8428 8.68669 39.2711 9.67414 37.6793C10.6632 36.0866 11.633 34.523 12.585 32.9875C13.5378 31.452 14.4625 29.9664 15.3574 28.5299C16.2531 27.0934 17.0989 25.743 17.8957 24.4771C18.1226 23.9934 18.521 23.752 19.09 23.752C19.6147 23.752 20.0066 23.9934 20.2625 24.4771L31.4584 42.392H28.4108ZM13.8654 35.9297H24.3379L19.539 28.2305C19.3829 27.9746 19.2405 27.8466 19.1125 27.8466C18.9701 27.8466 18.8276 27.9746 18.6868 28.2305L13.8654 35.9297Z" fill="white"/>
<path d="M55.3247 41.1768C54.3019 41.9872 53.0641 42.392 51.6139 42.392H38.7328C37.2681 42.392 36.0449 41.9936 35.0639 41.1977C34.0112 40.3736 33.4857 39.3564 33.4857 38.1477V27.9955C33.4857 26.8157 34.0112 25.8065 35.0639 24.9671C36.0875 24.1567 37.3253 23.752 38.7746 23.752H51.6775C53.0279 23.752 54.1731 24.1286 55.1115 24.8827C56.0933 25.6367 56.725 26.8238 57.0091 28.4438H54.3856C54.2013 27.6615 53.8528 27.1143 53.341 26.8012C52.9 26.5316 52.3382 26.3964 51.655 26.3964H38.7739C38.0061 26.3964 37.3518 26.5743 36.8118 26.93C36.3418 27.2285 36.1076 27.5843 36.1076 27.9963V38.1485C36.1076 38.575 36.3418 38.9452 36.8118 39.2574L36.7901 39.2365C37.3164 39.5914 37.9635 39.7693 38.7312 39.7693H51.6123C52.2803 39.7693 52.8774 39.6276 53.4046 39.3427C54.0299 39.0442 54.3429 38.6386 54.3429 38.1267V34.3942H43.9139V31.7707H56.9447V38.1477C56.9463 39.3283 56.4055 40.3374 55.3247 41.1768Z" fill="white"/>
<path d="M82.8582 33.1789C81.8772 33.9757 80.6467 34.3732 79.1683 34.3732H63.621V42.392H60.9982V27.9962C60.9982 26.8164 61.5238 25.8073 62.5764 24.9679C63.6001 24.1575 64.8378 23.7527 66.2864 23.7527H79.1683C80.604 23.7527 81.8273 24.1575 82.8373 24.9679C83.9036 25.8073 84.4363 26.8164 84.4363 27.9962V30.1289C84.4363 31.3376 83.9108 32.3541 82.8582 33.1789ZM81.8353 27.9962C81.8353 27.5979 81.5931 27.243 81.1094 26.9299C80.5694 26.5742 79.9224 26.3964 79.1691 26.3964H66.2671C65.6128 26.3964 65.0221 26.5316 64.4974 26.8012C63.9131 27.0716 63.6218 27.4699 63.6218 27.9954V31.7497H79.1691C79.9232 31.7497 80.5694 31.5791 81.1094 31.2379C81.5939 30.9256 81.8353 30.5554 81.8353 30.1289V27.9962Z" fill="white"/>
<path d="M111.927 38.2329C111.712 39.4988 111.116 40.5152 110.134 41.283C109.181 42.0226 108.031 42.392 106.679 42.392H93.7766C92.3264 42.392 91.0967 41.9936 90.0875 41.1977C89.0212 40.3736 88.4884 39.3564 88.4884 38.1476V23.7728H91.1538V38.1476C91.1538 38.5741 91.3888 38.9443 91.858 39.2566L91.8363 39.2357C92.3626 39.5906 93.0096 39.7684 93.7774 39.7684H106.68C107.335 39.7684 107.904 39.6268 108.386 39.3419H108.366C108.878 39.0288 109.225 38.4961 109.411 37.7428H111.501L111.927 38.2329Z" fill="white"/>
<path d="M153.968 0H169.624L145.506 40.6408C144.129 42.9063 142.785 44.6494 141.474 45.871C140.164 47.0927 138.954 47.9811 137.843 48.5356C136.734 49.0917 135.778 49.4136 134.979 49.5022C134.179 49.5915 133.622 49.6357 133.313 49.6357H118.922V14.5253H132.381L132.447 38.6426L153.968 0Z" fill="#742E68"/>
<path d="M118.922 49.6351H0V61.0411H118.922V49.6351Z" fill="#742E68"/>
<path d="M32.6913 54.0779C32.7203 53.8775 32.6864 53.7391 32.5859 53.6626H32.5915C32.4998 53.5934 32.3678 53.5588 32.1915 53.5588H28.8936C28.6972 53.5588 28.5145 53.6039 28.3463 53.6948C28.1983 53.7721 28.1049 53.8622 28.0663 53.9684L27.7162 54.9309H30.1498L29.9044 55.6037H27.4699L26.7215 57.6599H26.0431L27.387 53.9684C27.4965 53.6666 27.7275 53.4067 28.0743 53.1918C28.4123 52.985 28.7672 52.8804 29.1382 52.8804H32.4362C32.7871 52.8804 33.0462 52.9777 33.2176 53.1701C33.4059 53.3632 33.4582 53.6658 33.3745 54.0779H32.6913Z" fill="white"/>
<path d="M37.561 55.368C37.5747 55.1789 37.5168 55.0494 37.3896 54.9802C37.3421 54.9512 37.289 54.9303 37.2295 54.9198C37.1683 54.9093 37.1055 54.9037 37.0411 54.9037H35.4485C35.2883 54.9037 35.1298 54.9343 34.9721 54.997C34.7894 55.0663 34.6799 55.1532 34.6421 55.2594L33.7681 57.66H33.0889L34.3371 54.2309H35.0163L34.9648 54.3725C35.0992 54.3218 35.224 54.2856 35.3406 54.2631C35.4557 54.2414 35.5716 54.2301 35.6899 54.2301H37.2866C37.5884 54.2301 37.8362 54.3066 38.0286 54.4595C38.2595 54.6454 38.3271 54.948 38.2338 55.3672L37.561 55.368Z" fill="white"/>
<path d="M43.5975 55.248C43.4816 55.5659 43.2305 55.8258 42.8426 56.0302C42.5239 56.1976 42.198 56.2813 41.8713 56.2813H40.2786C40.1732 56.2813 40.075 56.2733 39.9824 56.2548C39.8907 56.2371 39.7788 56.2025 39.6485 56.1509L39.4819 56.6097L39.4771 56.6209C39.4537 56.7159 39.5101 56.802 39.6469 56.8785C39.7048 56.9187 39.766 56.9461 39.8295 56.9638C39.8923 56.9799 39.9575 56.9879 40.0227 56.9879H41.6153C41.6797 56.9879 41.7465 56.9823 41.8141 56.9718C41.8825 56.9605 41.9501 56.9396 42.0193 56.9114C42.1972 56.8414 42.3485 56.7119 42.4724 56.5227H43.1444C42.9352 56.938 42.6478 57.239 42.2809 57.4257C41.9799 57.5818 41.6765 57.6607 41.3699 57.6607H39.7772C39.4706 57.6607 39.2147 57.581 39.0071 57.4201C38.7479 57.2189 38.6779 56.9549 38.7962 56.6274L39.296 55.2544C39.4143 54.9293 39.6605 54.671 40.0331 54.477C40.3478 54.3129 40.6786 54.2316 41.0246 54.2316H42.6172C42.952 54.2316 43.2192 54.3096 43.4172 54.4666C43.657 54.6597 43.7182 54.9196 43.5975 55.248ZM42.9142 55.2593C42.9472 55.1723 42.9142 55.0951 42.8184 55.0299C42.7138 54.9462 42.5633 54.9044 42.3662 54.9044H40.7792C40.6407 54.9044 40.4838 54.9349 40.3084 54.9977C40.1241 55.0637 40.013 55.149 39.9744 55.2544C39.9366 55.3558 39.9841 55.4419 40.116 55.5111C40.2335 55.5771 40.3703 55.6093 40.5232 55.6093H42.1159C42.3042 55.6093 42.4829 55.5699 42.6511 55.4894C42.7951 55.4234 42.8828 55.347 42.9142 55.2593Z" fill="white"/>
<path d="M48.9364 55.248C48.8197 55.5659 48.5686 55.8258 48.1815 56.0302C47.862 56.1976 47.5369 56.2813 47.2093 56.2813H45.6175C45.5113 56.2813 45.4139 56.2733 45.3213 56.2548C45.2296 56.2371 45.1177 56.2025 44.9882 56.1509L44.82 56.6097L44.8167 56.6209C44.7926 56.7159 44.8481 56.802 44.9849 56.8785C45.0429 56.9187 45.104 56.9461 45.1676 56.9638C45.2312 56.9799 45.2964 56.9879 45.3608 56.9879H46.9534C47.0178 56.9879 47.0854 56.9823 47.153 56.9718C47.2206 56.9605 47.2898 56.9396 47.3582 56.9114C47.5369 56.8414 47.6874 56.7119 47.8113 56.5227H48.4825C48.2732 56.938 47.9859 57.239 47.6197 57.4257C47.318 57.5818 47.0146 57.6607 46.7079 57.6607H45.1153C44.8095 57.6607 44.5528 57.581 44.3451 57.4201C44.086 57.2189 44.0168 56.9549 44.1359 56.6274L44.6349 55.2544C44.7532 54.9293 44.9986 54.671 45.3728 54.477C45.6867 54.3129 46.0175 54.2316 46.3627 54.2316H47.9554C48.2901 54.2316 48.5573 54.3096 48.7553 54.4666C48.9959 54.6597 49.0555 54.9196 48.9364 55.248ZM48.2539 55.2593C48.2853 55.1723 48.2523 55.0951 48.1565 55.0299C48.0527 54.9462 47.9022 54.9044 47.7051 54.9044H46.1181C45.9796 54.9044 45.8219 54.9349 45.6473 54.9977C45.463 55.0637 45.3519 55.149 45.3125 55.2544C45.2763 55.3558 45.3238 55.4419 45.4541 55.5111C45.5724 55.5771 45.7084 55.6093 45.8613 55.6093H47.454C47.6423 55.6093 47.8218 55.5699 47.99 55.4894C48.134 55.4234 48.2209 55.347 48.2539 55.2593Z" fill="white"/>
<path d="M59.1892 57.3543C58.8641 57.5579 58.5132 57.6601 58.1373 57.6601H54.8289C54.4813 57.6601 54.2221 57.5667 54.0491 57.3808C53.864 57.1804 53.8117 56.8746 53.8922 56.4626H54.565C54.5416 56.6557 54.5787 56.7942 54.676 56.8779H54.6704C54.7678 56.9503 54.903 56.9873 55.0736 56.9873H58.3828C58.5752 56.9873 58.7562 56.9414 58.9236 56.8513C59.0765 56.77 59.1731 56.6783 59.2109 56.572L59.4105 56.0248C59.4483 55.9194 59.4202 55.826 59.326 55.7455C59.2254 55.6546 59.0741 55.6087 58.8777 55.6087H55.575C55.2032 55.6087 54.9247 55.5073 54.7412 55.3029C54.5448 55.0905 54.5022 54.8297 54.6173 54.515L54.8169 53.9678C54.9263 53.666 55.1565 53.4061 55.5041 53.1912C55.8421 52.9844 56.1971 52.8798 56.5681 52.8798H59.8781C60.2241 52.8798 60.4816 52.9771 60.6522 53.1695C60.8406 53.3626 60.8937 53.6652 60.8084 54.0773H60.1364C60.1589 53.8841 60.1211 53.7449 60.0237 53.662H60.0294C59.9392 53.5928 59.8056 53.5582 59.631 53.5582H56.3218C56.1246 53.5582 55.9403 53.6032 55.7689 53.6942C55.6192 53.7714 55.5267 53.8616 55.4889 53.9678L55.2893 54.515C55.249 54.6245 55.2748 54.7195 55.3665 54.7999C55.4679 54.8909 55.6192 54.9359 55.8196 54.9359H59.1288C59.5039 54.9359 59.7815 55.0381 59.9569 55.2426C60.1517 55.4574 60.1943 55.7174 60.0825 56.0248L59.8829 56.572C59.7718 56.8819 59.5401 57.1434 59.1892 57.3543Z" fill="white"/>
<path d="M64.4467 57.4088C64.1304 57.5762 63.8061 57.6599 63.4754 57.6599H61.8835C61.5584 57.6599 61.296 57.5778 61.0932 57.4145C60.8478 57.2133 60.785 56.9501 60.9033 56.6266L61.4031 55.2537C61.5198 54.9358 61.77 54.6758 62.1587 54.4714C62.4774 54.304 62.8042 54.2203 63.1349 54.2203H64.7276C65.0406 54.2203 65.299 54.2984 65.501 54.4553C65.7537 54.6597 65.8229 54.9237 65.7038 55.248L65.2024 56.6266C65.0865 56.9429 64.8354 57.2044 64.4467 57.4088ZM65.0245 55.248C65.0616 55.1458 65.0141 55.0613 64.8837 54.9905C64.7718 54.9285 64.6366 54.8979 64.4797 54.8979H62.8871C62.7269 54.8979 62.5708 54.9269 62.4187 54.9849C62.232 55.0581 62.1201 55.145 62.0823 55.2472L61.5793 56.6314C61.5415 56.7336 61.589 56.8189 61.7201 56.8881C61.8384 56.9533 61.972 56.9863 62.1225 56.9863H63.7192C63.7924 56.9863 63.8665 56.9791 63.9461 56.9646C64.0234 56.9493 64.1031 56.9268 64.1844 56.893C64.3711 56.8205 64.4837 56.7312 64.5224 56.6258L65.0245 55.248Z" fill="white"/>
<path d="M67.5466 54.9037L66.5431 57.6601H65.8647L67.2287 53.9082C67.3462 53.5871 67.5659 53.3304 67.8886 53.1365C68.1719 52.9691 68.526 52.8854 68.9526 52.8854L68.7119 53.5477C68.4447 53.5871 68.2516 53.6386 68.1301 53.6998C68.0094 53.7626 67.9353 53.8326 67.9072 53.9082L67.7897 54.2309H68.4673L68.2226 54.9037H67.5466Z" fill="white"/>
<path d="M70.6192 54.9037L69.6164 57.66H68.9324L69.9351 54.9037H69.2623L69.5078 54.2309H70.1806L70.6723 52.8805H71.3556L70.8646 54.2309H71.5431L71.2984 54.9037H70.6192Z" fill="white"/>
<path d="M75.7988 57.3969C75.5115 57.5683 75.1856 57.6544 74.8251 57.6544C74.6287 57.6544 74.4444 57.6262 74.2754 57.5715C74.1056 57.5168 73.9616 57.4315 73.8433 57.3148C73.6389 57.4283 73.4272 57.5136 73.2115 57.5715C72.995 57.6303 72.789 57.6592 72.591 57.6592C72.2442 57.6592 71.9859 57.5755 71.8136 57.4081C71.6237 57.2182 71.5891 56.9575 71.709 56.6259L72.5806 54.2301H73.2598L72.3858 56.6307C72.348 56.7329 72.3794 56.8158 72.48 56.8818C72.5902 56.951 72.7431 56.9856 72.9395 56.9856C73.1399 56.9856 73.3177 56.951 73.4698 56.8818C73.6195 56.8198 73.7137 56.7345 73.7547 56.6259L74.2923 55.1491H74.9707L74.4307 56.6315C74.3929 56.7378 74.4243 56.8191 74.5281 56.8778C74.6376 56.947 74.7864 56.9816 74.9764 56.9816C75.1808 56.9816 75.3594 56.947 75.5123 56.8778C75.6636 56.8158 75.7554 56.7337 75.7924 56.6315L76.6664 54.2309H77.3512L76.4797 56.6267C76.363 56.947 76.1352 57.2045 75.7988 57.3969Z" fill="white"/>
<path d="M80.9067 57.4145C80.588 57.5787 80.2589 57.66 79.9201 57.66H78.3282C77.9854 57.66 77.715 57.5803 77.5186 57.4193C77.2812 57.2294 77.2225 56.9695 77.344 56.6371C77.4607 56.3168 77.711 56.0577 78.0973 55.8605C78.416 55.6931 78.7435 55.6086 79.0743 55.6086H80.6669C80.7691 55.6086 80.8657 55.6191 80.9566 55.6368C81.0492 55.6545 81.1602 55.6891 81.2906 55.7406L81.4596 55.2754C81.4813 55.1772 81.4274 55.0903 81.2986 55.0131C81.1827 54.9406 81.058 54.9036 80.9236 54.9036H79.331C79.2618 54.9036 79.1934 54.9093 79.125 54.9197C79.0574 54.931 78.989 54.9519 78.9206 54.9801C78.7419 55.0493 78.5906 55.1797 78.4675 55.368H77.7947C78.0072 54.9527 78.2936 54.6517 78.6534 54.4658C78.9544 54.3089 79.2594 54.2308 79.5708 54.2308H81.1667C81.4805 54.2308 81.7381 54.3089 81.9392 54.4658C82.1952 54.663 82.2636 54.927 82.1437 55.2585L81.6439 56.6315C81.5272 56.9574 81.2809 57.2173 80.9067 57.4145ZM80.9655 56.6371C81.0025 56.5357 80.9558 56.4496 80.8238 56.3804C80.7063 56.3144 80.5719 56.2814 80.4231 56.2814H78.8304C78.6445 56.2814 78.4642 56.3224 78.2888 56.4029C78.1448 56.4681 78.057 56.5445 78.0248 56.6323C77.991 56.7232 78.0208 56.8013 78.1134 56.8673C78.2236 56.9469 78.3741 56.9872 78.5681 56.9872H80.1639C80.3209 56.9872 80.4754 56.9582 80.6275 56.8994C80.8158 56.827 80.9276 56.7401 80.9655 56.6371Z" fill="white"/>
<path d="M86.7815 55.368C86.7952 55.1789 86.738 55.0494 86.6109 54.9802C86.5626 54.9512 86.5095 54.9303 86.4491 54.9198C86.3896 54.9093 86.3268 54.9037 86.2616 54.9037H84.6698C84.5096 54.9037 84.3495 54.9343 84.1917 54.997C84.0107 55.0663 83.9012 55.1532 83.8618 55.2594L82.9878 57.66H82.3094L83.5576 54.2309H84.236L84.1853 54.3725C84.3197 54.3218 84.4452 54.2856 84.5611 54.2631C84.677 54.2414 84.7929 54.2301 84.9096 54.2301H86.5063C86.8097 54.2301 87.0567 54.3066 87.2491 54.4595C87.48 54.6454 87.5484 54.948 87.4543 55.3672L86.7815 55.368Z" fill="white"/>
<path d="M92.8181 55.248C92.7022 55.5659 92.4511 55.8258 92.0632 56.0302C91.7429 56.1976 91.4186 56.2813 91.091 56.2813H89.4992C89.3922 56.2813 89.2948 56.2733 89.2023 56.2548C89.1113 56.2371 88.9995 56.2025 88.8691 56.1509L88.7017 56.6097L88.6977 56.6209C88.6743 56.7159 88.7299 56.802 88.8659 56.8785C88.9238 56.9187 88.985 56.9461 89.0485 56.9638C89.1129 56.9799 89.1773 56.9879 89.2417 56.9879H90.8343C90.8995 56.9879 90.9663 56.9823 91.0339 56.9718C91.1023 56.9605 91.1707 56.9396 91.2399 56.9114C91.4178 56.8414 91.5683 56.7119 91.693 56.5227H92.365C92.155 56.938 91.8685 57.239 91.5015 57.4257C91.2005 57.5818 90.8963 57.6607 90.5905 57.6607H88.9979C88.6912 57.6607 88.4345 57.581 88.2269 57.4201C87.9677 57.2189 87.8985 56.9549 88.0176 56.6274L88.5174 55.2544C88.6349 54.9293 88.8812 54.671 89.2546 54.477C89.5692 54.3129 89.8992 54.2316 90.2452 54.2316H91.8379C92.1727 54.2316 92.4391 54.3096 92.6378 54.4666C92.8777 54.6597 92.938 54.9196 92.8181 55.248ZM92.1364 55.2593C92.1678 55.1723 92.1356 55.0951 92.0391 55.0299C91.9353 54.9462 91.7848 54.9044 91.5876 54.9044H90.0014C89.863 54.9044 89.7053 54.9349 89.5298 54.9977C89.3455 55.0637 89.2345 55.149 89.1958 55.2544C89.1588 55.3558 89.2063 55.4419 89.3375 55.5111C89.4558 55.5771 89.591 55.6093 89.7447 55.6093H91.3365C91.5256 55.6093 91.7043 55.5699 91.8725 55.4894C92.0165 55.4234 92.1043 55.347 92.1364 55.2593Z" fill="white"/>
<path d="M181.411 38.1275C181.411 39.3387 180.877 40.3575 179.808 41.184C178.825 41.9824 177.6 42.3807 176.132 42.3807H163.201C161.847 42.3807 160.7 42.017 159.76 41.2911C158.748 40.5072 158.107 39.3105 157.836 37.7002H160.466C160.65 38.4551 160.992 38.9967 161.491 39.325H161.47C161.955 39.6099 162.531 39.7524 163.201 39.7524H176.132C176.873 39.7524 177.514 39.581 178.056 39.2389C178.54 38.9259 178.783 38.5549 178.783 38.1275V35.9901C178.783 35.5917 178.54 35.2352 178.056 34.9213C177.486 34.5511 176.838 34.3652 176.112 34.3652H169.228V31.7361H176.132C176.887 31.7361 177.529 31.5582 178.056 31.2017C178.54 30.8886 178.783 30.5249 178.783 30.112V27.9746C178.783 27.5754 178.54 27.2197 178.056 26.9058C177.486 26.5356 176.838 26.3505 176.112 26.3505H163.201C162.546 26.3505 161.976 26.493 161.491 26.7779H161.512C161 27.0772 160.65 27.6189 160.465 28.4027H157.835C158.091 26.7779 158.719 25.5957 159.717 24.8545C160.657 24.0996 161.818 23.7222 163.2 23.7222H176.131C177.571 23.7222 178.796 24.1213 179.807 24.9189C180.876 25.7598 181.41 26.7787 181.41 27.9754C181.41 29.0151 181.368 29.9632 181.282 30.8178C181.253 31.2452 181.112 31.6379 180.855 31.9936C180.741 32.1505 180.609 32.3139 180.46 32.4853C180.311 32.6567 180.128 32.8418 179.914 33.0406C180.328 33.4253 180.641 33.7818 180.855 34.1093C181.097 34.5085 181.24 34.8932 181.282 35.2634C181.368 36.1043 181.411 37.0588 181.411 38.1275Z" fill="white"/>
</svg>
