<svg width="160" height="158" viewBox="0 0 160 158" fill="none" xmlns="http://www.w3.org/2000/svg">
<path d="M100.54 24.4939L81.2571 68.929C97.1608 71.717 113.065 74.505 128.968 77.293C134.295 74.5951 139.572 70.6775 143.429 66.1491C152.898 55.4293 144.627 34.7269 149.017 31.1291C151.946 33.4159 128.652 15.9209 114.26 19.1731C109.536 20.1586 104.661 22.1509 100.54 24.4939Z" fill="#D8F6FF" stroke="#4B455E" stroke-width="4.56105" stroke-linecap="round"/>
<path d="M92.7533 120.841L82.6191 67.3792C100.083 72.2799 99.7613 71.8576 117.225 76.7582C122.236 82.0091 128.927 88.5176 131.961 94.8786C139.5 110.1 141.742 131.938 145.554 137.631C149.18 136.771 120.505 142.922 106.035 132.747C101.267 129.489 96.5707 125.158 92.7533 120.841Z" fill="#BCE5FE" stroke="#4B455E" stroke-width="4.36137" stroke-linecap="round"/>
<path d="M46.024 55.2415L80.9758 82.4239C67.8033 89.8566 54.6308 97.2893 41.4583 104.722C35.6042 104.463 29.3118 103.263 24.0512 101.126C11.2944 96.1804 10.5022 77.7417 5.13266 76.4875C3.41066 79.1987 17.3805 58.1601 31.5936 55.8054C36.2256 54.9707 41.3939 54.8471 46.024 55.2415Z" fill="#9BC6F8" stroke="#4B455E" stroke-width="4.12768" stroke-linecap="round"/>
<path d="M87.5253 123.851L86.3017 69.0232C70.1145 77.5171 70.3426 77.0334 54.1553 85.5274C50.3167 91.7547 45.0859 99.5741 43.4297 106.481C39.1904 123.067 41.56 145.065 38.9963 151.477C35.242 151.389 64.7993 151.438 76.9298 138.373C80.9466 134.162 84.6675 128.907 87.5253 123.851Z" fill="#BEE3FE" stroke="#4B455E" stroke-width="4.39561" stroke-linecap="round"/>
<path d="M51.2254 64.3524L86.9995 79.684C91.3699 65.2734 95.7404 50.8629 100.111 36.4523C98.4552 31.7878 95.7455 27.2237 92.3347 23.9619C84.3027 15.9364 81.2921 -1.80066 72.0055 4.22565C62.4225 10.0435 47.3534 39.4843 48.3592 52.2667C48.619 56.4653 49.7247 60.7556 51.2254 64.3524Z" fill="#AEDFFB" stroke="#4B455E" stroke-width="4.22106" stroke-linecap="round"/>
<path d="M54.0085 86.9344L86.8603 69.2501C80.8379 58.1057 74.8154 46.9613 68.7929 35.8169C64.835 34.4533 60.2494 33.9154 56.0078 34.6083C45.8071 36.0501 32.906 28.4644 30.545 38.5756C27.8617 48.7885 36.1487 76.0437 44.6848 82.361C47.4424 84.4876 50.8099 86.0466 54.0085 86.9344Z" fill="#AEDFFB" stroke="#4B455E" stroke-width="3.80204" stroke-linecap="round"/>
<path d="M70.6142 37.7392L84.0352 75.8214C95.3322 68.5049 106.629 61.1884 117.926 53.872C119.651 49.2025 120.652 43.8167 120.44 38.8628C120.145 26.9437 103.351 18.9869 103.993 14.2993C107.079 14.0352 82.9261 16.5583 75.9782 26.7076C73.6515 29.9884 71.8029 33.9706 70.6142 37.7392Z" fill="#D8F6FF" stroke="#4B455E" stroke-width="3.80204" stroke-linecap="round"/>
<path d="M115.168 100.198L73.5475 77.4397C86.5123 68.3881 86.05 68.3708 99.0148 59.3193C105.325 58.8495 113.412 57.944 119.375 59.4205C133.8 62.765 149.751 73.3388 155.695 73.9214C157.123 71.0034 145.398 93.7225 130.537 97.8395C125.704 99.2483 120.187 100.015 115.168 100.198Z" fill="#BCE5FE" stroke="#4B455E" stroke-width="3.80204" stroke-linecap="round"/>
<path d="M110.507 112.368L86.22 71.6213C77.6559 84.9131 77.6215 84.4518 69.0574 97.7437C68.8221 104.067 68.2174 112.182 69.9142 118.086C73.7918 132.377 84.9504 147.925 85.7532 153.843C82.8902 155.378 105.158 142.818 108.721 127.814C109.95 122.932 110.511 117.391 110.507 112.368Z" fill="#BEE3FE" stroke="#4B455E" stroke-width="3.80204" stroke-linecap="round"/>
<path d="M39.2639 77.5268L79.6274 78.6048C76.1336 91.6028 72.6398 104.601 69.1459 117.599C65.2316 120.674 60.4137 123.281 55.634 124.6C44.2002 127.98 31.4707 114.441 27.2066 116.49C27.903 119.509 22.8872 95.7481 30.4125 86.0192C32.8204 82.7975 36.0424 79.8154 39.2639 77.5268Z" fill="#9BC6F8" stroke="#4B455E" stroke-width="3.80204" stroke-linecap="round"/>
<path d="M76.5744 37.952C80.5901 57.95 75.3344 76.3939 64.8353 79.1476C75.3344 76.3939 87.101 90.3734 91.1167 110.371C87.101 90.3734 92.3567 71.9294 102.856 69.1758C92.3567 71.9294 80.5901 57.95 76.5744 37.952Z" fill="#F0F1FF"/>
</svg>
