<svg width="260" height="260" viewBox="0 0 260 260" fill="none" xmlns="http://www.w3.org/2000/svg">
<path fill-rule="evenodd" clip-rule="evenodd" d="M108.32 107.448C103.955 109.792 99.2043 105.042 101.549 100.677L138.824 31.2821L58.7345 111.371C54.1783 114.081 49.8821 117.395 45.9619 121.315C20.5779 146.699 20.5779 187.855 45.9619 213.239C71.346 238.623 112.502 238.623 137.886 213.239C142.71 208.415 146.617 203.022 149.608 197.275L257.08 89.8026L178.762 122.33C174.644 124.04 170.516 119.913 172.227 115.794L195.039 60.8671L108.32 107.448Z" fill="url(#paint0_linear_178_75)"/>
<circle cx="92" cy="167" r="50" fill="url(#paint1_linear_178_75)"/>
<mask id="mask0_178_75" style="mask-type:alpha" maskUnits="userSpaceOnUse" x="42" y="116" width="100" height="101">
<circle cx="92" cy="167" r="50" fill="url(#paint2_linear_178_75)"/>
</mask>
<g mask="url(#mask0_178_75)">
<circle cx="68" cy="147" r="10" fill="#BA68C8" fill-opacity="0.4"/>
<circle cx="96" cy="163" r="10" fill="#BA68C8" fill-opacity="0.4"/>
<circle cx="122" cy="179" r="10" fill="#BA68C8" fill-opacity="0.4"/>
<circle cx="82" cy="212" r="10" fill="#BA68C8" fill-opacity="0.4"/>
<circle cx="99" cy="133" r="10" fill="#BA68C8" fill-opacity="0.4"/>
<circle cx="88" cy="189" r="10" fill="#BA68C8" fill-opacity="0.4"/>
<circle cx="112" cy="202" r="10" fill="#BA68C8" fill-opacity="0.4"/>
<circle cx="129" cy="143" r="10" fill="#BA68C8" fill-opacity="0.4"/>
<circle cx="58" cy="177" r="10" fill="#BA68C8" fill-opacity="0.4"/>
</g>
<defs>
<linearGradient id="paint0_linear_178_75" x1="237.554" y1="70.2769" x2="137.399" y2="252.533" gradientUnits="userSpaceOnUse">
<stop stop-color="#BA68C8"/>
<stop offset="1" stop-color="#FF4081"/>
</linearGradient>
<linearGradient id="paint1_linear_178_75" x1="92" y1="117" x2="92" y2="217" gradientUnits="userSpaceOnUse">
<stop stop-color="#7B1FA2"/>
<stop offset="1" stop-color="#2E0B3C"/>
</linearGradient>
<linearGradient id="paint2_linear_178_75" x1="92" y1="117" x2="92" y2="217" gradientUnits="userSpaceOnUse">
<stop stop-color="#7B1FA2"/>
<stop offset="1" stop-color="#BA68C8"/>
</linearGradient>
</defs>
</svg>
