<svg width="200" height="200" viewBox="0 0 200 200" fill="none" xmlns="http://www.w3.org/2000/svg">
<ellipse cx="100.125" cy="99.6281" rx="40.0501" ry="39.653" fill="url(#paint0_linear_178_132)"/>
<path fill-rule="evenodd" clip-rule="evenodd" d="M170.787 169.365L143.588 122.343L119.062 146.625L166.555 173.555L170.787 169.365Z" fill="url(#paint1_linear_178_132)"/>
<path fill-rule="evenodd" clip-rule="evenodd" d="M173.725 29.2362L146.526 76.2588L122 51.9764L169.493 25.0463L173.725 29.2362Z" fill="url(#paint2_linear_178_132)"/>
<path fill-rule="evenodd" clip-rule="evenodd" d="M200 102.376L147.184 116.584V82.2434L200 96.451V102.376Z" fill="url(#paint3_linear_178_132)"/>
<path fill-rule="evenodd" clip-rule="evenodd" d="M0 102.376L52.816 116.584V82.2434L0 96.451L0 102.376Z" fill="url(#paint4_linear_178_132)"/>
<path fill-rule="evenodd" clip-rule="evenodd" d="M29.0837 169.365L56.2834 122.343L80.809 146.625L33.3156 173.555L29.0837 169.365Z" fill="url(#paint5_linear_178_132)"/>
<path fill-rule="evenodd" clip-rule="evenodd" d="M26.1468 29.2362L53.3465 76.2588L77.8721 51.9764L30.3787 25.0463L26.1468 29.2362Z" fill="url(#paint6_linear_178_132)"/>
<path fill-rule="evenodd" clip-rule="evenodd" d="M96.9161 200L82.5663 147.708H117.251L102.901 200H96.9161Z" fill="url(#paint7_linear_178_132)"/>
<path fill-rule="evenodd" clip-rule="evenodd" d="M96.9161 0L82.5663 52.2924H117.251L102.901 0L96.9161 0Z" fill="url(#paint8_linear_178_132)"/>
<defs>
<linearGradient id="paint0_linear_178_132" x1="100.125" y1="59.9751" x2="100.125" y2="139.281" gradientUnits="userSpaceOnUse">
<stop stop-color="#C62828"/>
<stop offset="1" stop-color="#EF5350"/>
</linearGradient>
<linearGradient id="paint1_linear_178_132" x1="168.671" y1="171.46" x2="131.697" y2="134.116" gradientUnits="userSpaceOnUse">
<stop stop-color="#EF5350"/>
<stop offset="1" stop-color="#C62828"/>
</linearGradient>
<linearGradient id="paint2_linear_178_132" x1="171.609" y1="27.1413" x2="134.635" y2="64.486" gradientUnits="userSpaceOnUse">
<stop stop-color="#EF5350"/>
<stop offset="1" stop-color="#C62828"/>
</linearGradient>
<linearGradient id="paint3_linear_178_132" x1="200" y1="99.4137" x2="147.184" y2="99.4137" gradientUnits="userSpaceOnUse">
<stop stop-color="#EF5350"/>
<stop offset="1" stop-color="#C62828"/>
</linearGradient>
<linearGradient id="paint4_linear_178_132" x1="0" y1="99.4137" x2="52.816" y2="99.4137" gradientUnits="userSpaceOnUse">
<stop stop-color="#EF5350"/>
<stop offset="1" stop-color="#C62828"/>
</linearGradient>
<linearGradient id="paint5_linear_178_132" x1="31.1997" y1="171.46" x2="68.1742" y2="134.116" gradientUnits="userSpaceOnUse">
<stop stop-color="#EF5350"/>
<stop offset="1" stop-color="#C62828"/>
</linearGradient>
<linearGradient id="paint6_linear_178_132" x1="28.2628" y1="27.1413" x2="65.2373" y2="64.486" gradientUnits="userSpaceOnUse">
<stop stop-color="#EF5350"/>
<stop offset="1" stop-color="#C62828"/>
</linearGradient>
<linearGradient id="paint7_linear_178_132" x1="99.9085" y1="200" x2="99.9085" y2="147.708" gradientUnits="userSpaceOnUse">
<stop stop-color="#EF5350"/>
<stop offset="1" stop-color="#C62828"/>
</linearGradient>
<linearGradient id="paint8_linear_178_132" x1="99.9085" y1="0" x2="99.9085" y2="52.2924" gradientUnits="userSpaceOnUse">
<stop stop-color="#EF5350"/>
<stop offset="1" stop-color="#C62828"/>
</linearGradient>
</defs>
</svg>
