<svg width="248" height="300" viewBox="0 0 248 300" fill="none" xmlns="http://www.w3.org/2000/svg">
<g clip-path="url(#clip0_250_266)">
<mask id="mask0_250_266" style="mask-type:alpha" maskUnits="userSpaceOnUse" x="0" y="0" width="500" height="300">
<rect width="500" height="300" fill="#D9D9D9"/>
</mask>
<g mask="url(#mask0_250_266)">
<rect width="5.81148" height="477.563" transform="matrix(0.808479 -0.588525 0.179044 0.983841 -42.6017 -83.2124)" fill="#A1BDED"/>
<rect width="5.81148" height="477.563" transform="matrix(0.808479 -0.588525 0.179044 0.983841 -52.6017 -83.2124)" fill="#A1BDED"/>
<rect width="5.81148" height="477.563" transform="matrix(0.808479 -0.588525 0.179044 0.983841 -62.6017 -83.2124)" fill="#A1BDED"/>
<rect width="5.81148" height="477.563" transform="matrix(0.808479 -0.588525 0.179044 0.983841 -72.6017 -83.2124)" fill="#A1BDED"/>
<rect width="5.81148" height="477.563" transform="matrix(0.808479 -0.588525 0.179044 0.983841 -32.6017 -83.2124)" fill="#A1BDED"/>
<rect width="5.81148" height="477.563" transform="matrix(0.808479 -0.588525 0.179044 0.983841 -22.6017 -83.2124)" fill="#A1BDED"/>
<rect width="5.81148" height="477.563" transform="matrix(0.808479 -0.588525 0.179044 0.983841 -12.6017 -83.2124)" fill="#A1BDED"/>
<rect width="5.81148" height="477.563" transform="matrix(0.808479 -0.588525 0.179044 0.983841 -2.60175 -83.2124)" fill="#A1BDED"/>
<rect width="5.81148" height="477.563" transform="matrix(0.808479 -0.588525 0.179044 0.983841 7.39832 -83.2124)" fill="#A1BDED"/>
<rect width="5.81148" height="477.563" transform="matrix(0.808479 -0.588525 0.179044 0.983841 17.3983 -83.2124)" fill="#A1BDED"/>
<rect width="5.81148" height="477.563" transform="matrix(0.808479 -0.588525 0.179044 0.983841 27.3983 -83.2124)" fill="#A1BDED"/>
<rect width="5.81148" height="477.563" transform="matrix(0.808479 -0.588525 0.179044 0.983841 37.3983 -83.2124)" fill="#A1BDED"/>
<rect width="5.81148" height="477.563" transform="matrix(0.808479 -0.588525 0.179044 0.983841 47.3983 -83.2124)" fill="#A1BDED"/>
<rect width="5.81148" height="477.563" transform="matrix(0.808479 -0.588525 0.179044 0.983841 57.3982 -83.2124)" fill="#A1BDED"/>
<rect width="5.81148" height="477.563" transform="matrix(0.808479 -0.588525 0.179044 0.983841 67.3982 -83.2124)" fill="#A1BDED"/>
<rect width="5.81148" height="477.563" transform="matrix(0.808479 -0.588525 0.179044 0.983841 77.3982 -83.2124)" fill="#A1BDED"/>
<rect width="5.81148" height="477.563" transform="matrix(0.808479 -0.588525 0.179044 0.983841 87.3982 -83.2124)" fill="#A1BDED"/>
<rect width="5.81148" height="477.563" transform="matrix(0.808479 -0.588525 0.179044 0.983841 97.3982 -83.2124)" fill="#A1BDED"/>
<rect width="5.81148" height="477.563" transform="matrix(0.808479 -0.588525 0.179044 0.983841 107.398 -83.2124)" fill="#A1BDED"/>
<rect width="5.81148" height="477.563" transform="matrix(0.808479 -0.588525 0.179044 0.983841 117.398 -83.2124)" fill="#A1BDED"/>
<rect width="5.81148" height="477.563" transform="matrix(0.808479 -0.588525 0.179044 0.983841 127.398 -83.2124)" fill="#A1BDED"/>
<rect width="5.81148" height="477.563" transform="matrix(0.808479 -0.588525 0.179044 0.983841 137.398 -83.2124)" fill="#A1BDED"/>
<rect width="5.81148" height="477.563" transform="matrix(0.808479 -0.588525 0.179044 0.983841 147.398 -83.2124)" fill="#A1BDED"/>
<rect width="5.81148" height="477.563" transform="matrix(0.808479 -0.588525 0.179044 0.983841 157.398 -83.2124)" fill="#A1BDED"/>
<rect width="5.81148" height="477.563" transform="matrix(0.808479 -0.588525 0.179044 0.983841 167.398 -83.2124)" fill="#A1BDED"/>
<rect width="5.81148" height="477.563" transform="matrix(0.808479 -0.588525 0.179044 0.983841 177.398 -83.2124)" fill="#A1BDED"/>
<rect width="5.81148" height="477.563" transform="matrix(0.808479 -0.588525 0.179044 0.983841 187.398 -83.2124)" fill="#A1BDED"/>
<rect width="5.81148" height="477.563" transform="matrix(0.808479 -0.588525 0.179044 0.983841 197.398 -83.2124)" fill="#A1BDED"/>
<rect width="5.81148" height="477.563" transform="matrix(0.808479 -0.588525 0.179044 0.983841 207.398 -83.2124)" fill="#A1BDED"/>
<rect width="5.81148" height="477.563" transform="matrix(0.808479 -0.588525 0.179044 0.983841 217.398 -83.2124)" fill="#A1BDED"/>
<rect width="5.81148" height="477.563" transform="matrix(0.808479 -0.588525 0.179044 0.983841 227.398 -83.2124)" fill="#A1BDED"/>
</g>
</g>
<defs>
<clipPath id="clip0_250_266">
<rect width="248" height="300" fill="white"/>
</clipPath>
</defs>
</svg>
