<?xml version="1.0" encoding="UTF-8" standalone="no"?>
<svg
   width="71.991348"
   height="65.000031"
   viewBox="0 0 71.991348 65.000031"
   fill="none"
   version="1.1"
   id="svg13"
   xmlns="http://www.w3.org/2000/svg"
   xmlns:svg="http://www.w3.org/2000/svg">
  <path
     d="m 27.335372,5.0000267 c 3.849,-6.6667 13.4716,-6.6667 17.3206,0 l 25.9807,45.0000003 c 3.849,6.6667 -0.9622,15 -8.6602,15 h -51.9616 c -7.6979998,0 -12.5091998,-8.3333 -8.6601998,-15 z"
     fill="#d9d9d9"
     id="path1" />
  <mask
     id="mask0_143_57"
     maskUnits="userSpaceOnUse"
     x="26"
     y="0"
     width="212"
     height="233">
    <ellipse
       cx="132"
       cy="116.5"
       rx="106"
       ry="116.5"
       fill="#d9d9d9"
       id="ellipse1" />
  </mask>
  <g
     mask="url(#mask0_143_57)"
     id="g2"
     transform="translate(-16.004328,-36.999973)">
    <path
       d="m 43.3397,42 c 3.849,-6.6667 13.4716,-6.6667 17.3206,0 L 86.641,87 c 3.849,6.6667 -0.9622,15 -8.6602,15 H 26.0192 C 18.3212,102 13.51,93.6667 17.359,87 Z"
       fill="#f5f5f5"
       id="path2" />
  </g>
  <rect
     x="31.995672"
     y="16.000027"
     width="7"
     height="28"
     rx="3"
     fill="url(#paint0_linear_143_57)"
     id="rect2"
     style="fill:url(#paint0_linear_143_57)" />
  <rect
     x="31.995672"
     y="49.000027"
     width="7"
     height="7"
     rx="3"
     fill="url(#paint1_linear_143_57)"
     id="rect3"
     style="fill:url(#paint1_linear_143_57)" />
  <defs
     id="defs13">
    <linearGradient
       id="paint0_linear_143_57"
       x1="51.5"
       y1="53"
       x2="51.5"
       y2="81"
       gradientUnits="userSpaceOnUse"
       gradientTransform="translate(-16.004328,-36.999973)">
      <stop
         stop-color="#192D69"
         id="stop10" />
      <stop
         offset="1"
         stop-color="#36457D"
         id="stop11" />
    </linearGradient>
    <linearGradient
       id="paint1_linear_143_57"
       x1="51.5"
       y1="86"
       x2="51.5"
       y2="93"
       gradientUnits="userSpaceOnUse"
       gradientTransform="translate(-16.004328,-36.999973)">
      <stop
         stop-color="#192D69"
         id="stop12" />
      <stop
         offset="1"
         stop-color="#36457D"
         id="stop13" />
    </linearGradient>
  </defs>
</svg>
