<?xml version="1.0" encoding="UTF-8" standalone="no"?>
<svg
   width="83.536476"
   height="69.053825"
   viewBox="0 0 83.536476 69.053825"
   fill="none"
   version="1.1"
   id="svg13"
   xmlns="http://www.w3.org/2000/svg"
   xmlns:svg="http://www.w3.org/2000/svg">
  <path
     d="m 32.811636,9.0538292 c 3.849,-6.6667 13.4716,-6.6667 17.3206,0 l 25.9807,44.9999998 c 3.849,6.6667 -0.9622,15 -8.6602,15 h -51.9616 c -7.6979998,0 -12.5091998,-8.3333 -8.6601998,-15 z"
     fill="#d9d9d9"
     id="path1" />
  <mask
     id="mask0_143_57"
     maskUnits="userSpaceOnUse"
     x="26"
     y="0"
     width="212"
     height="233">
    <ellipse
       cx="132"
       cy="116.5"
       rx="106"
       ry="116.5"
       fill="#d9d9d9"
       id="ellipse1" />
  </mask>
  <g
     mask="url(#mask0_143_57)"
     id="g2"
     transform="translate(-10.528064,-32.946171)">
    <path
       d="m 43.3397,42 c 3.849,-6.6667 13.4716,-6.6667 17.3206,0 L 86.641,87 c 3.849,6.6667 -0.9622,15 -8.6602,15 H 26.0192 C 18.3212,102 13.51,93.6667 17.359,87 Z"
       fill="#f5f5f5"
       id="path2" />
  </g>
  <rect
     x="37.471935"
     y="20.053829"
     width="7"
     height="28"
     rx="3"
     fill="url(#paint0_linear_143_57)"
     id="rect2"
     style="fill:url(#paint0_linear_143_57)" />
  <rect
     x="37.471935"
     y="53.053829"
     width="7"
     height="7"
     rx="3"
     fill="url(#paint1_linear_143_57)"
     id="rect3"
     style="fill:url(#paint1_linear_143_57)" />
  <path
     d="m 25.630736,8.8290292 c 0.9972,2.2013998 -2.0395,3.9546998 -3.4474,1.9903998 l -4.8948,-6.8294998 c -0.6886,-0.9609 -0.3981,-2.3061 0.6256,-2.8972 l 1.4277,-0.82420001 c 1.0237,-0.5911 2.334,-0.17 2.8218,0.90680001 z"
     fill="#e8b931"
     id="path3" />
  <path
     d="m 25.630736,8.8290292 c 0.9972,2.2013998 -2.0395,3.9546998 -3.4474,1.9903998 l -4.8948,-6.8294998 c -0.6886,-0.9609 -0.3981,-2.3061 0.6256,-2.8972 l 1.4277,-0.82420001 c 1.0237,-0.5911 2.334,-0.17 2.8218,0.90680001 z"
     fill="#f5f5f5"
     id="path4" />
  <path
     d="m 57.875236,8.8290292 c -0.9972,2.2013998 2.0396,3.9546998 3.4474,1.9903998 l 4.8948,-6.8294998 c 0.6886,-0.9609 0.3982,-2.3061 -0.6256,-2.8972 l -1.4276,-0.82420001 c -1.0238,-0.5911 -2.334,-0.17 -2.8218,0.90680001 z"
     fill="#f5f5f5"
     id="path5" />
  <path
     d="m 10.917336,30.153929 c 2.3274,0.6511 1.7184,4.1044 -0.6913,3.9202 l -8.3779998,-0.6403 c -1.17869997,-0.0901 -2.02249997,-1.1773 -1.81719997,-2.3415 l 0.2863,-1.6235 c 0.2052,-1.1641 1.36999997,-1.8972 2.50839997,-1.5787 z"
     fill="#f5f5f5"
     id="path6" />
  <path
     d="m 72.619236,30.153929 c -2.3274,0.6511 -1.7185,4.1044 0.6912,3.9202 l 8.378,-0.6403 c 1.1787,-0.0901 2.0225,-1.1773 1.8172,-2.3415 l -0.2862,-1.6235 c -0.2053,-1.1641 -1.3701,-1.8972 -2.5085,-1.5787 z"
     fill="#f5f5f5"
     id="path7" />
  <path
     d="m 16.941036,18.585429 c 1.69,1.7276 -0.564,4.4138 -2.5588,3.0494 l -6.9353998,-4.7435 c -0.9757,-0.6674 -1.1628,-2.0308 -0.403,-2.9364 l 1.0596,-1.2628 c 0.7599,-0.9056 2.1351998,-0.9581 2.9617998,-0.113 z"
     fill="#e8b931"
     id="path8" />
  <path
     d="m 16.941036,18.585429 c 1.69,1.7276 -0.564,4.4138 -2.5588,3.0494 l -6.9353998,-4.7435 c -0.9757,-0.6674 -1.1628,-2.0308 -0.403,-2.9364 l 1.0596,-1.2628 c 0.7599,-0.9056 2.1351998,-0.9581 2.9617998,-0.113 z"
     fill="#f5f5f5"
     id="path9" />
  <path
     d="m 64.910236,18.585429 c -1.6901,1.7276 0.5639,4.4138 2.5587,3.0494 l 6.9354,-4.7435 c 0.9758,-0.6674 1.1629,-2.0308 0.403,-2.9364 l -1.0596,-1.2628 c -0.7598,-0.9056 -2.1351,-0.9581 -2.9618,-0.113 z"
     fill="#f5f5f5"
     id="path10" />
  <defs
     id="defs13">
    <linearGradient
       id="paint0_linear_143_57"
       x1="51.5"
       y1="53"
       x2="51.5"
       y2="81"
       gradientUnits="userSpaceOnUse"
       gradientTransform="translate(-10.528064,-32.946171)">
      <stop
         stop-color="#192D69"
         id="stop10" />
      <stop
         offset="1"
         stop-color="#36457D"
         id="stop11" />
    </linearGradient>
    <linearGradient
       id="paint1_linear_143_57"
       x1="51.5"
       y1="86"
       x2="51.5"
       y2="93"
       gradientUnits="userSpaceOnUse"
       gradientTransform="translate(-10.528064,-32.946171)">
      <stop
         stop-color="#192D69"
         id="stop12" />
      <stop
         offset="1"
         stop-color="#36457D"
         id="stop13" />
    </linearGradient>
  </defs>
</svg>
