<?xml version="1.0" encoding="UTF-8" standalone="no"?>
<svg
   width="238"
   height="233"
   viewBox="0 0 238 233"
   fill="none"
   version="1.1"
   id="svg10"
   sodipodi:docname="warn2.svg"
   inkscape:version="1.3.2 (091e20e, 2023-11-25)"
   xmlns:inkscape="http://www.inkscape.org/namespaces/inkscape"
   xmlns:sodipodi="http://sodipodi.sourceforge.net/DTD/sodipodi-0.dtd"
   xmlns="http://www.w3.org/2000/svg"
   xmlns:svg="http://www.w3.org/2000/svg">
  <defs
     id="defs10" />
  <sodipodi:namedview
     id="namedview10"
     pagecolor="#ffffff"
     bordercolor="#000000"
     borderopacity="0.25"
     inkscape:showpageshadow="2"
     inkscape:pageopacity="0.0"
     inkscape:pagecheckerboard="0"
     inkscape:deskcolor="#d1d1d1"
     inkscape:zoom="1.1913178"
     inkscape:cx="64.634306"
     inkscape:cy="40.291515"
     inkscape:window-width="1280"
     inkscape:window-height="449"
     inkscape:window-x="0"
     inkscape:window-y="25"
     inkscape:window-maximized="0"
     inkscape:current-layer="svg10" />
  <path
     d="M43.3397 42C47.1887 35.3333 56.8113 35.3333 60.6603 42L86.641 87C90.49 93.6667 85.6788 102 77.9808 102H26.0192C18.3212 102 13.51 93.6667 17.359 87L43.3397 42Z"
     fill="#E6A000"
     id="path1" />
  <mask
     id="mask0_143_57"
     style="mask-type:alpha"
     maskUnits="userSpaceOnUse"
     x="26"
     y="0"
     width="212"
     height="233">
    <ellipse
       cx="132"
       cy="116.5"
       rx="106"
       ry="116.5"
       fill="#D9D9D9"
       id="ellipse1" />
  </mask>
  <g
     mask="url(#mask0_143_57)"
     id="g2">
    <path
       d="M43.3397 42C47.1887 35.3333 56.8113 35.3333 60.6603 42L86.641 87C90.49 93.6667 85.6788 102 77.9808 102H26.0192C18.3212 102 13.51 93.6667 17.359 87L43.3397 42Z"
       fill="#E8B931"
       id="path2" />
  </g>
  <rect
     x="48"
     y="53"
     width="7"
     height="28"
     rx="3"
     fill="#F5F5F5"
     id="rect2" />
  <rect
     x="48"
     y="86"
     width="7"
     height="7"
     rx="3"
     fill="#F5F5F5"
     id="rect3" />
  <path
     d="M36.1588 41.7752C37.156 43.9766 34.1193 45.7299 32.7114 43.7656L27.8166 36.9361C27.128 35.9752 27.4185 34.63 28.4422 34.0389L29.8699 33.2147C30.8936 32.6236 32.2039 33.0447 32.6917 34.1215L36.1588 41.7752Z"
     fill="#E8B931"
     id="path3" />
  <path
     d="M36.1588 41.7752C37.156 43.9766 34.1193 45.7299 32.7114 43.7656L27.8166 36.9361C27.128 35.9752 27.4185 34.63 28.4422 34.0389L29.8699 33.2147C30.8936 32.6236 32.2039 33.0447 32.6917 34.1215L36.1588 41.7752Z"
     fill="#E8B931"
     id="path4" />
  <path
     d="M68.4033 41.7752C67.4061 43.9766 70.4429 45.7299 71.8507 43.7656L76.7455 36.9361C77.4341 35.9752 77.1437 34.63 76.1199 34.0389L74.6923 33.2147C73.6685 32.6236 72.3583 33.0447 71.8705 34.1215L68.4033 41.7752Z"
     fill="#E8B931"
     id="path5" />
  <path
     d="M21.4454 63.1001C23.7728 63.7512 23.1638 67.2045 20.7541 67.0203L12.3761 66.38C11.1974 66.2899 10.3536 65.2027 10.5589 64.0385L10.8452 62.415C11.0504 61.2509 12.2152 60.5178 13.3536 60.8363L21.4454 63.1001Z"
     fill="#E8B931"
     id="path6" />
  <path
     d="M83.1473 63.1001C80.8199 63.7512 81.4288 67.2045 83.8385 67.0203L92.2165 66.38C93.3952 66.2899 94.239 65.2027 94.0337 64.0385L93.7475 62.415C93.5422 61.2509 92.3774 60.5178 91.239 60.8363L83.1473 63.1001Z"
     fill="#E8B931"
     id="path7" />
  <path
     d="M27.4691 51.5316C29.1591 53.2592 26.9051 55.9454 24.9103 54.581L17.9749 49.8375C16.9992 49.1701 16.8121 47.8067 17.5719 46.9011L18.6315 45.6383C19.3914 44.7327 20.7667 44.6802 21.5933 45.5253L27.4691 51.5316Z"
     fill="#E8B931"
     id="path8" />
  <path
     d="M27.4691 51.5316C29.1591 53.2592 26.9051 55.9454 24.9103 54.581L17.9749 49.8375C16.9992 49.1701 16.8121 47.8067 17.5719 46.9011L18.6315 45.6383C19.3914 44.7327 20.7667 44.6802 21.5933 45.5253L27.4691 51.5316Z"
     fill="#E8B931"
     id="path9" />
  <path
     d="M75.4383 51.5316C73.7482 53.2592 76.0022 55.9454 77.997 54.581L84.9324 49.8375C85.9082 49.1701 86.0953 47.8067 85.3354 46.9011L84.2758 45.6383C83.516 44.7327 82.1407 44.6802 81.314 45.5253L75.4383 51.5316Z"
     fill="#E8B931"
     id="path10" />
</svg>
